<svg xmlns="http://www.w3.org/2000/svg" xmlns:xlink="http://www.w3.org/1999/xlink" width="174" height="45" viewBox="0 0 174 45"><defs><path id="a" d="M0 .005h173.998v44.979H0z"/></defs><g fill="none" fill-rule="evenodd"><mask id="b" fill="#fff"><use xlink:href="#a"/></mask><path fill="#ADA176" mask="url(#b)" d="M43.178 45H28.871L17.256 24.852v10.339h3.462V45H0v-9.809h3.478V9.779H.034V.005h17.731l11.688 20.149V9.779h-3.48V.005h20.685v9.774h-3.48V45M66.513 23.748h4.2l-2.09-7.011-2.11 7.011zM91.776 45H71.093v-9.809h3.078l-.502-1.669h-10.13l-.494 1.67h3.154V45H45.514v-9.809h3.404L59.51.005h18.203L88.287 35.19h3.489V45zm21.14 0H99.338L87.49 9.779h-4.2V.005h20.667v9.774H101.7a941.46 941.46 0 0 0 1.872 5.572l.248.735c.44 1.291.895 2.659 1.375 4.101.29.872.589 1.77.9 2.698.677-2.05 1.417-4.24 2.268-6.717.596-1.813 1.15-3.467 1.649-4.95l.481-1.44h-2.248V.006h20.667v9.774h-4.2L112.915 45M163.009 45h-20.684v-9.809h3.358v-6.855L135.9 9.779h-4.908V.005h20.701v9.774h-1.612l2.638 5.175 2.583-5.175h-1.523V.005h20.219v9.774h-4.26l-10.054 18.597v6.815h3.325V45"/><path fill="#FFFFFE" d="M44.834 1.824H27.797v6.135h3.479v18.97L16.714 1.824H1.857v6.135h3.445V37.01H1.824v6.171h17.07V37.01h-3.462V18.04l14.496 25.141h11.426V7.959h3.48V1.824M68.632 10.382l4.526 15.186H64.06l4.572-15.186zM47.338 37.01v6.17h17.037v-6.17h-3.77l1.573-5.306h12.846l1.6 5.306h-3.708v6.17h17.036v-6.17H86.93L76.355 1.824H60.867L50.273 37.01h-2.935zM127.09 7.96V1.823h-17.02v6.135h2.952l-1.278 3.836c-.498 1.481-1.05 3.13-1.649 4.952a521.102 521.102 0 0 0-3.116 9.307l-.844 2.613-.888-2.599c-.637-1.872-1.225-3.64-1.781-5.307-.479-1.44-.932-2.802-1.372-4.091l-.248-.737a705.901 705.901 0 0 1-2.27-6.783l-.388-1.19h2.945V1.823h-17.02v6.135H88.8l11.85 35.222h10.952L123.4 7.959h3.689M172.174 1.824h-16.572v6.135h2.646l-5.512 11.043-5.629-11.043h2.762V1.824h-17.053v6.135h4.186l10.505 19.928v9.123h-3.358v6.171h17.036V37.01h-3.325v-9.093l10.789-19.958h3.525V1.824"/></g></svg>